Coordinates
version=1
nRows=5
nColumns=40
inDegrees=yes

Units are S.I. units (second, meters, Newtons, ...)
If the header above contains a line with 'inDegrees', this indicates whether rotational values are in degrees (yes) or radians (no).

endheader
time	pelvis_tilt	pelvis_list	pelvis_rotation	pelvis_tx	pelvis_ty	pelvis_tz	hip_flexion_r	hip_adduction_r	hip_rotation_r	knee_angle_r	knee_angle_r_beta	ankle_angle_r	subtalar_angle_r	mtp_angle_r	hip_flexion_l	hip_adduction_l	hip_rotation_l	knee_angle_l	knee_angle_l_beta	ankle_angle_l	subtalar_angle_l	mtp_angle_l	lumbar_extension	lumbar_bending	lumbar_rotation	arm_flex_r	arm_add_r	arm_rot_r	elbow_flex_r	pro_sup_r	wrist_flex_r	wrist_dev_r	arm_flex_l	arm_add_l	arm_rot_l	elbow_flex_l	pro_sup_l	wrist_flex_l	wrist_dev_l
      0.88500000	     -8.41996433	     -0.64338508	     -2.35004351	      0.22809472	      0.88407389	     -1.21125546	     20.65260765	    -22.12431004	    -29.58642413	     24.28024304	      0.42377018	     -3.56535456	      0.07133161	      0.00000000	     19.86694884	    -26.98206484	    -37.49145660	     26.75702894	      0.46699825	      2.67817830	     16.60166922	      0.00000000	     -3.03593319	      0.53215617	      0.38275837	     44.99916598	    -15.00001585	     44.99916598	     75.00017595	     45.00000026	      0.00000000	      0.00000000	     44.99916598	    -15.00001585	     44.99916598	     75.00017595	     45.00000026	      0.00000000	      0.00000000
      0.89000000	     -8.28079989	     -0.89589794	     -2.27716885	      0.22718319	      0.88315086	     -1.21161034	     20.76150934	    -22.12340677	    -29.64236715	     24.93376764	      0.43517634	     -3.11171585	      0.41847285	      0.00000000	     20.21856074	    -27.49876262	    -37.18531627	     27.59246291	      0.48157933	      3.03955311	     16.50135002	      0.00000000	     -3.50329028	      0.94241664	      0.39158340	     44.99919004	    -15.00001511	     44.99919004	     75.00017594	     45.00000026	      0.00000000	      0.00000000	     44.99919004	    -15.00001511	     44.99919004	     75.00017594	     45.00000026	      0.00000000	      0.00000000
      0.89500000	     -8.60856625	     -0.85689188	     -2.39971083	      0.22609627	      0.88126006	     -1.21136963	     21.69871336	    -22.33368592	    -29.20601174	     25.82004555	      0.45064481	     -2.83430686	      0.17180764	      0.00000000	     20.97357443	    -27.80139324	    -37.06074440	     28.43121005	      0.49621823	      3.37557805	     16.33347011	      0.00000000	     -3.36363222	      0.84797898	      0.44672044	     44.99922176	    -15.00001422	     44.99922176	     75.00017593	     45.00000026	      0.00000000	      0.00000000	     44.99922176	    -15.00001422	     44.99922176	     75.00017593	     45.00000026	      0.00000000	      0.00000000
      0.90000000	     -9.05493558	     -0.71259498	     -2.45334439	      0.22475871	      0.87923038	     -1.21119580	     22.75336907	    -22.61892356	    -28.66682219	     26.62966752	      0.46477538	     -2.65495891	     -0.22904915	      0.00000000	     21.90688222	    -27.86902470	    -36.61823699	     29.16160728	      0.50896606	      3.73774123	     15.50826803	      0.00000000	     -3.10758437	      0.65608513	      0.52849080	     44.99923969	    -15.00001372	     44.99923969	     75.00017593	     45.00000026	      0.00000000	      0.00000000	     44.99923969	    -15.00001372	     44.99923969	     75.00017593	     45.00000026	      0.00000000	      0.00000000
      0.90500000	     -9.06878507	     -0.83899444	     -2.47628578	      0.22392760	      0.87770442	     -1.21131653	     23.21542481	    -22.74521429	    -28.55755846	     27.49099924	      0.47980845	     -2.31188503	     -0.28169097	      0.00000000	     22.38020727	    -28.37388518	    -36.56803701	     30.09382466	      0.52523632	      4.03012252	     15.89172558	      0.00000000	     -3.34694842	      0.80592644	      0.44113416	     44.99925200	    -15.00001338	     44.99925200	     75.00017593	     45.00000026	      0.00000000	      0.00000000	     44.99925200	    -15.00001338	     44.99925200	     75.00017593	     45.00000026	      0.00000000	      0.00000000
